<svg id="Layer_1" data-name="Layer 1" xmlns="http://www.w3.org/2000/svg" viewBox="0 0 13.47 13.47"><defs><style>.cls-1{fill:#e6e6e6;}</style></defs><title>medal</title><circle class="cls-1" cx="6.73" cy="6.73" r="6.73"/><path d="M9.2,10.08H4.35V9.15l2.3-2.47a5.58,5.58,0,0,0,.71-1A1.56,1.56,0,0,0,7.57,5a1.1,1.1,0,0,0-.24-0.74A0.85,0.85,0,0,0,6.64,4a0.89,0.89,0,0,0-.75.33,1.43,1.43,0,0,0-.26.89H4.25v0a2.15,2.15,0,0,1,.63-1.63,2.37,2.37,0,0,1,1.77-.67,2.47,2.47,0,0,1,1.73.57A2,2,0,0,1,9,5a2.14,2.14,0,0,1-.35,1.19A11.76,11.76,0,0,1,7.47,7.58L6.21,9V9h3v1.1Z"/></svg>