<svg id="Layer_1" data-name="Layer 1" xmlns="http://www.w3.org/2000/svg" viewBox="0 0 13.47 13.47"><defs><style>.cls-1{fill:#f79c7c;}</style></defs><title>medal</title><circle class="cls-1" cx="6.73" cy="6.73" r="6.73"/><path d="M5.76,5.92h0.8a1,1,0,0,0,.75-0.27,1.06,1.06,0,0,0,.24-0.74,1,1,0,0,0-.24-0.69A0.93,0.93,0,0,0,6.6,4a1,1,0,0,0-.67.23,0.77,0.77,0,0,0-.27.62H4.27v0A1.62,1.62,0,0,1,4.9,3.41a2.55,2.55,0,0,1,1.66-.54,2.73,2.73,0,0,1,1.76.53A1.82,1.82,0,0,1,9,4.9a1.51,1.51,0,0,1-.29.88,2,2,0,0,1-.81.65,1.81,1.81,0,0,1,.9.64,1.69,1.69,0,0,1,.31,1,1.85,1.85,0,0,1-.71,1.54,2.85,2.85,0,0,1-1.82.56,2.79,2.79,0,0,1-1.7-.52,1.68,1.68,0,0,1-.69-1.48v0H5.57a0.87,0.87,0,0,0,.29.67,1.06,1.06,0,0,0,.74.26,1.08,1.08,0,0,0,.78-0.27,1,1,0,0,0,.29-0.74,1.07,1.07,0,0,0-.28-0.82A1.17,1.17,0,0,0,6.56,7H5.76V5.92Z"/></svg>